<svg xmlns="http://www.w3.org/2000/svg" width="810" height="810" style="shape-rendering:geometricPrecision;text-rendering:geometricPrecision;image-rendering:optimizeQuality;fill-rule:evenodd;clip-rule:evenodd"><path fill="#fefffe" d="M256.5 127.5c11.338-.167 22.672 0 34 .5l79 79a57.217 57.217 0 0 1-8.5 9.5 1290.734 1290.734 0 0 1-74.5-73.5 169.166 169.166 0 0 0-26 0 1129.184 1129.184 0 0 1-39.5 40.5 198.138 198.138 0 0 1-2 27L84.5 345c-9.766.051-19.433.718-29 2A1044.758 1044.758 0 0 1 19 385.5a121.244 121.244 0 0 0 0 22A1128.756 1128.756 0 0 0 58.5 448c9.434.053 18.767.72 28 2L220 583.5a198.138 198.138 0 0 1 2 27 1186.336 1186.336 0 0 1 40.5 41.5 121.19 121.19 0 0 0 22 0 4134.27 4134.27 0 0 1 76-77c1.544-1.187 3.211-1.52 5-1l6.5 6.5c.624 1.964.124 3.631-1.5 5a9177.861 9177.861 0 0 0-81 80.5 256.122 256.122 0 0 1-32 0A124548.253 124548.253 0 0 1 3 411.5a164.462 164.462 0 0 1 .5-31 62602.06 62602.06 0 0 0 253-253Z" style="opacity:.9"/><path fill="#fefffe" d="M517.5 127.5c11.338-.167 22.672 0 34 .5A22816.007 22816.007 0 0 1 805 382.5c.667 9.333.667 18.667 0 28A27295.304 27295.304 0 0 1 550.5 666a256.122 256.122 0 0 1-32 0 43539.238 43539.238 0 0 0-168-167.5 2091.062 2091.062 0 0 1 112-.5 167.695 167.695 0 0 0-5.5 43.5c5.8 19.99 18.966 27.823 39.5 23.5a40.875 40.875 0 0 0 13-7 25762.75 25762.75 0 0 1 163-141c12.818-13.642 14.318-28.475 4.5-44.5l-116-140c-11.889-11.902-25.389-14.068-40.5-6.5-7.695 5.218-12.528 12.385-14.5 21.5a3029.28 3029.28 0 0 0-7.5 44c-48.334.167-96.668 0-145-.5a37604.601 37604.601 0 0 0 164-163.5Z" style="opacity:.978"/><path fill="#fefffe" d="M535.5 249.5a5219.057 5219.057 0 0 1 120 143.5 17482.917 17482.917 0 0 0-169 146c-.983.591-1.65.257-2-1a7611.01 7611.01 0 0 1 13-70c-98.999-.5-197.999-.667-297-.5l25-146c99.001.167 198.001 0 297-.5a3203.04 3203.04 0 0 0 13-71.5Z" style="opacity:.992"/><script/></svg>